<svg width="22" height="21" viewBox="0 0 22 21" fill="none" xmlns="http://www.w3.org/2000/svg">
<g clip-path="url(#clip0_586_386)">
<path d="M11 0C4.9258 0 0 4.7019 0 10.5C0 16.2981 4.9258 21 11 21C17.0742 21 22 16.2981 22 10.5C22 4.7019 17.0742 0 11 0ZM16.0225 8.18678C16.0273 8.29012 16.0297 8.39394 16.0297 8.49825C16.0297 11.6829 13.4902 15.3552 8.84602 15.3554H8.84619H8.84602C7.42017 15.3554 6.09334 14.9564 4.97598 14.2728C5.17354 14.2951 5.37462 14.3061 5.57822 14.3061C6.7612 14.3061 7.84985 13.921 8.7141 13.2745C7.60883 13.2549 6.67694 12.5582 6.35535 11.6005C6.50926 11.6287 6.66754 11.6441 6.82985 11.6441C7.0603 11.6441 7.28354 11.6145 7.4957 11.5592C6.34041 11.3384 5.47012 10.3638 5.47012 9.19679C5.47012 9.1859 5.47012 9.17612 5.47046 9.16603C5.81068 9.3466 6.19975 9.45522 6.614 9.4674C5.93607 9.03561 5.49043 8.29749 5.49043 7.46132C5.49043 7.01976 5.61548 6.60608 5.83234 6.24992C7.07742 7.70821 8.93817 8.66727 11.0366 8.76805C10.9933 8.59149 10.971 8.40756 10.971 8.21851C10.971 6.88806 12.1017 5.80868 13.496 5.80868C14.2223 5.80868 14.8783 6.10172 15.339 6.57019C15.9142 6.46188 16.4543 6.26129 16.9423 5.98524C16.7534 6.54776 16.3533 7.01976 15.832 7.31824C16.3427 7.25993 16.8295 7.13063 17.2818 6.93869C16.944 7.42207 16.5154 7.84664 16.0225 8.18678Z" fill="white"/>
</g>
<defs>
<clipPath id="clip0_586_386">
<rect width="22" height="21" fill="white"/>
</clipPath>
</defs>
</svg>
