<svg width="21" height="21" viewBox="0 0 21 21" fill="none" xmlns="http://www.w3.org/2000/svg">
<path d="M20.1075 16.3275C19.5379 17.3408 18.9197 17.5271 17.661 17.598C16.4036 17.6833 13.2418 17.7188 10.5026 17.7188C7.75819 17.7188 4.59506 17.6833 3.339 17.5993C2.08294 17.5271 1.46344 17.3421 0.888563 16.3275C0.301875 15.3156 0 13.5726 0 10.5039C0 10.5013 0 10.5 0 10.5C0 10.4974 0 10.4961 0 10.4961V10.4934C0 7.43794 0.301875 5.68181 0.888563 4.68038C1.46344 3.66712 2.08162 3.48337 3.33769 3.39806C4.59506 3.32456 7.75819 3.28125 10.5026 3.28125C13.2418 3.28125 16.4036 3.32456 17.6623 3.39675C18.921 3.48206 19.5392 3.66581 20.1088 4.67906C20.7008 5.6805 21 7.43663 21 10.4921C21 10.4921 21 10.4961 21 10.4987C21 10.4987 21 10.5013 21 10.5026C21 13.5726 20.7008 15.3156 20.1075 16.3275ZM7.875 6.5625V14.4375L14.4375 10.5L7.875 6.5625Z" fill="white"/>
</svg>
